<?xml version="1.0" standalone="no"?>
<!DOCTYPE svg PUBLIC "-//W3C//DTD SVG 20010904//EN"
 "http://www.w3.org/TR/2001/REC-SVG-20010904/DTD/svg10.dtd">
<svg version="1.0" xmlns="http://www.w3.org/2000/svg"
 width="247.000000pt" height="247.000000pt" viewBox="0 0 247.000000 247.000000"
 preserveAspectRatio="xMidYMid meet">
<metadata>
Created by potrace 1.14, written by Peter Selinger 2001-2017
</metadata>
<g transform="translate(0.000000,247.000000) scale(0.100000,-0.100000)"
fill="#000000" stroke="none">
<path d="M1220 2269 c-102 -12 -238 -52 -337 -98 -329 -157 -557 -456 -624
-821 -15 -84 -15 -286 0 -370 79 -429 378 -762 796 -886 77 -23 114 -27 255
-31 138 -4 181 -2 260 15 223 46 394 137 556 297 151 149 248 313 301 513 24
87 26 115 26 277 0 162 -2 190 -26 277 -120 448 -497 777 -950 827 -108 12
-149 12 -257 0z m141 -574 c306 -62 580 -321 703 -663 32 -90 33 -108 4 -116
-47 -12 -53 -7 -71 57 -57 197 -211 409 -381 521 -257 170 -536 185 -826 45
l-104 -51 -23 28 c-29 36 -24 42 90 98 197 97 399 124 608 81z m27 -227 c41
-15 99 -42 130 -60 67 -40 179 -142 227 -208 61 -83 158 -300 142 -317 -3 -2
-21 -8 -40 -13 l-34 -7 -18 56 c-23 75 -85 190 -140 260 -120 153 -298 241
-487 241 -104 0 -179 -19 -283 -69 l-80 -40 -22 27 c-12 15 -22 29 -23 32 0
12 111 70 180 93 105 36 101 36 245 33 112 -2 140 -6 203 -28z m-144 -218
c153 -25 305 -141 378 -290 48 -97 58 -140 32 -140 -11 0 -29 -3 -41 -6 -16
-4 -23 -2 -23 8 0 34 -72 159 -125 216 -90 98 -224 152 -339 136 -57 -7 -152
-38 -173 -56 -12 -9 -19 -6 -38 18 -14 16 -24 32 -25 36 0 10 65 42 125 61 84
27 143 31 229 17z m-24 -306 c103 -41 107 -197 5 -240 -64 -26 -122 -11 -164
42 -49 63 -13 181 62 203 46 13 52 13 97 -5z"/>
</g>
</svg>
